<?xml version="1.0" standalone="no"?>
<!DOCTYPE svg PUBLIC "-//W3C//DTD SVG 1.1//EN" "http://www.w3.org/Graphics/SVG/1.1/DTD/svg11.dtd">
<svg xmlns="http://www.w3.org/2000/svg">
<metadata>Copyright (C) 2021 by original authors @ fontello.com</metadata>
<defs>
<font id="fontello" horiz-adv-x="1000" >
<font-face font-family="fontello" font-weight="400" font-stretch="normal" units-per-em="1000" ascent="850" descent="-150" />
<missing-glyph horiz-adv-x="1000" />
<glyph glyph-name="brand-3" unicode="&#xe800;" d="M1172 350c11 6-48 182-172 291a599 599 0 0 1-313 134 632 632 0 0 1-411-65 702 702 0 0 1-262-277l-14 7a725 725 0 0 0 641 410 734 734 0 0 0 388-103 745 745 0 0 0 278-295z m584 0c10-6-49-182-173-291a599 599 0 0 0-312-134 632 632 0 0 0-411 65 702 702 0 0 0-262 277l-14-7a724 724 0 0 1 261-295 727 727 0 0 1 380-115 734 734 0 0 1 387 103 745 745 0 0 1 279 295z" horiz-adv-x="1890" />

<glyph glyph-name="brand-2" unicode="&#xe801;" d="M971 747c-5 8-139-37-223-132a459 459 0 0 1-103-239 483 483 0 0 1 50-315 537 537 0 0 1 212-200l-5-11a555 555 0 0 0-314 491 561 561 0 0 0 79 296 570 570 0 0 0 225 213z m-971 0c5 8 139-37 223-132a459 459 0 0 0 103-239 483 483 0 0 0-50-315 537 537 0 0 0-212-200l5-11a554 554 0 0 1 226 200 556 556 0 0 1 88 291 561 561 0 0 1-80 296 570 570 0 0 1-225 213z" horiz-adv-x="971" />

<glyph glyph-name="brand-1" unicode="&#xe802;" d="M2344 850c21-12-97-364-345-582a1199 1199 0 0 0-624-269 1263 1263 0 0 0-822 131 1404 1404 0 0 0-525 554l-28-14a1449 1449 0 0 1 522-590 1454 1454 0 0 1 761-230 1467 1467 0 0 1 775 207 1490 1490 0 0 1 556 588z" horiz-adv-x="2614" />

<glyph glyph-name="phone" unicode="&#xe803;" d="M786 158q0-15-6-39t-12-38q-11-28-68-60-52-28-103-28-15 0-30 2t-32 7-26 8-31 11-28 10q-54 20-97 47-71 44-148 120t-120 148q-27 43-46 97-2 5-10 28t-12 31-8 26-7 32-2 29q0 52 29 104 31 57 59 68 14 6 38 12t39 6q8 0 12-2 10-3 30-42 6-11 16-31t20-35 17-30q2-2 10-14t12-20 4-16q0-11-16-27t-35-31-34-30-16-25q0-5 3-13t4-11 8-14 7-10q42-77 97-132t131-97q1 0 10-6t14-8 11-5 13-2q10 0 25 16t30 34 31 35 28 16q7 0 15-4t20-12 14-10q14-8 30-17t36-20 30-17q39-19 42-29 2-4 2-12z" horiz-adv-x="785.7" />

<glyph glyph-name="print" unicode="&#xe804;" d="M214-7h500v143h-500v-143z m0 357h500v214h-89q-22 0-38 16t-16 38v89h-357v-357z m643-36q0 15-10 25t-26 11-25-11-10-25 10-25 25-10 26 10 10 25z m72 0v-232q0-7-6-12t-12-6h-125v-89q0-22-16-38t-38-16h-536q-22 0-37 16t-16 38v89h-125q-7 0-13 6t-5 12v232q0 44 32 76t75 31h36v304q0 22 16 38t37 16h375q23 0 50-12t42-26l85-85q15-16 27-43t11-49v-143h35q45 0 76-31t32-76z" horiz-adv-x="928.6" />

<glyph glyph-name="ig" unicode="&#xe805;" d="M669-149h-341c-179 0-329 151-329 330v341c0 179 150 329 329 329h341c179 0 330-150 330-329v-341c0-179-151-330-330-330z m-341 954c-156 0-283-127-283-283v-341c0-156 127-283 283-283h341c156 0 283 127 283 283v341c0 156-127 283-283 283h-341z m173-728c-150 0-277 121-277 277 0 151 121 278 277 278 151 0 278-122 278-278-6-156-127-277-278-277z m0 509c-127 0-231-104-231-232s104-231 231-231 232 104 232 231-104 232-232 232z m278-12c-29 0-52 23-52 52s23 52 52 52 52-29 52-52-23-52-52-52z m0 58c-6 0-6-6-6-6 0-6 12-6 12 0 0 0-6 6-6 6z" horiz-adv-x="1000" />

<glyph glyph-name="mail" unicode="&#xe806;" d="M1257-148h-1144c-64 0-112 48-112 112v776c0 64 48 112 112 112h1144c64 0 112-48 112-112v-776c0-64-48-112-112-112z m-1144 936c-24 0-48-24-48-48v-776c0-24 24-48 48-48h1144c24 0 48 24 48 48v776c0 24-24 48-48 48h-1144z m568-544c-8 0-16 0-16 8l-656 488 32 48 632-472 632 472 32-48-656-488c16-8 8-8 0-8z" horiz-adv-x="1368" />

<glyph glyph-name="attention" unicode="&#xe807;" d="M571 83v106q0 8-5 13t-12 5h-108q-7 0-12-5t-5-13v-106q0-8 5-13t12-6h108q7 0 12 6t5 13z m-1 208l10 257q0 6-5 10-7 6-14 6h-122q-6 0-14-6-5-4-5-12l9-255q0-5 6-9t13-3h103q8 0 14 3t5 9z m-7 522l428-786q20-35-1-70-9-17-26-26t-35-10h-858q-18 0-35 10t-26 26q-21 35-1 70l429 786q9 17 26 27t36 10 36-10 27-27z" horiz-adv-x="1000" />

<glyph glyph-name="line" unicode="&#xe808;" d="M513-140c-10 0-21 5-21 15-5 10 0 26 11 36 223 117 451 269 446 513-15 213-213 380-457 375-121 0-233-45-314-116-87-77-127-173-127-275 5-218 183-370 421-365 10 0 26-10 26-25 0-16-11-26-26-26-269-5-467 173-472 416 0 117 51 229 142 310 92 81 218 132 350 132 275 5 493-183 503-426 10-269-234-437-472-559-5-5-10-5-10-5z m-279 416c-6 0-16 0-16 6-5 5-5 10-10 20l0 198c0 15 10 25 26 25 10 0 25-10 25-25l0-168 81 0c15 0 26-10 26-25 0-15-11-25-26-25l-106-6c0 0 0 0 0 0z m167 6c-15 0-25 10-25 25l0 193c0 15 10 25 25 25 10 0 25-10 25-25l6-193c-6-15-16-25-31-25 0 0 0 0 0 0z m86 0c-15 0-25 10-25 25l-5 193c0 10 5 20 20 25 10 5 21 0 31-10l76-122 0 107c0 15 10 25 25 25 15 0 26-10 26-25l5-193c0-10-5-20-21-25-10-6-20 0-30 10l-81 122 0-112c5-10-10-20-21-20 0 0 0 0 0 0z m219 5c-16 0-26 10-26 25l-5 193c0 15 10 25 26 25l111 0c15 0 26-10 26-25 0-15-11-26-26-26l-86 0 0-142 86 0c10 0 26-10 26-25 0-15-11-25-26-25l-106 0c0 0 0 0 0 0z m0 91c-16 0-26 10-26 25 0 16 10 26 26 26l101 0c0 0 0 0 0 0 15 0 26-10 26-26 0-15-11-25-26-25l-101 0c0 0 0 0 0 0z" horiz-adv-x="995" />

<glyph glyph-name="link" unicode="&#xe809;" d="M192-150c-51 0-96 13-128 45-109 90-83 288 58 449 64 77 141 128 224 153 84 26 160 13 212-32 38-32 57-76 64-121 0-20-13-32-26-32-19-7-38 0-38 19 0 32-19 58-39 83-38 32-89 39-154 19-70-19-134-70-192-134-109-128-141-295-64-359 77-64 237-13 346 115 19 19 39 45 51 71 7 13 26 19 39 13 13-7 19-26 13-45-19-26-39-58-58-77-90-109-205-167-308-167z m359 340c-51 0-96 13-128 45-19 25-38 51-51 83-7 19 6 38 25 38 13 7 33 0 39-19 6-19 19-38 32-51 32-32 90-39 154-19 70 19 134 70 192 134 109 129 141 295 64 359-38 32-89 39-154 20-70-20-134-71-192-135-19-26-32-45-51-71-7-12-26-19-39-12-19 12-19 32-12 44 19 26 32 52 57 77 64 77 141 129 225 154 83 26 160 13 211-32 109-90 83-288-58-449-64-76-141-128-224-153-32-7-58-13-90-13z" horiz-adv-x="987" />

<glyph glyph-name="drink" unicode="&#xe80a;" d="M417 850h-67a17 17 0 0 1-17-17v-183h-316a17 17 0 0 1-17-17v-100a17 17 0 0 1 17-16h35l65-652a17 17 0 0 1 17-15h333a17 17 0 0 1 16 15l65 652h35a17 17 0 0 1 17 16v100a17 17 0 0 1-17 17h-150v183a17 17 0 0 1-16 17z m-50-33h33v-167h-33z m85-934h-304l-51 513a291 291 0 0 1 86-13 248 248 0 0 1 124 29 217 217 0 0 0 110 25l58-6 30-10z m57 573a256 256 0 0 1-92 14 248 248 0 0 1-124-28 217 217 0 0 0-110-25 256 256 0 0 0-89 16l-9 84h430z m58 161v-67h-534v67z" horiz-adv-x="600" />

<glyph glyph-name="fb" unicode="&#xe80b;" d="M320-150h-178c-6 0-12 0-18 6 0 0-6 6-6 12l0 455h-94c-12 0-24 12-24 24v148c0 12 12 24 24 24h94v124c0 0-6 83 54 142 53 53 142 77 266 59 12 0 18-12 18-24v-147c0-12-12-24-24-24h-24c-12 0-35 0-47-12-12 0-18-12-18-30v-94h154c6 0 12-6 18-12 6-6 6-12 0-18l-59-148c6-6-6-12-12-12h-101v-455c0-12-12-18-23-18z m-154 41h136v456c0 12 12 24 23 24h107l41 100h-153c-12 0-18 12-18 24v112c0 36 12 54 29 66 24 29 71 29 77 23l12 0v107c-100 6-171-6-213-48-47-47-41-112-41-112l0-148c0-12-12-24-24-24h-101v-106h101c6 0 12 0 18-6 6-6 6-12 6-18l0-450z" horiz-adv-x="521" />

<glyph glyph-name="ok" unicode="&#xe80c;" d="M933 534q0-22-16-38l-404-404-76-76q-16-15-38-15t-38 15l-76 76-202 202q-15 16-15 38t15 38l76 76q16 16 38 16t38-16l164-165 366 367q16 16 38 16t38-16l76-76q16-15 16-38z" horiz-adv-x="1000" />

<glyph glyph-name="brand-4" unicode="&#xe80d;" d="M1361-33a1099 1099 0 0 1 343 35c293 86 496 414 496 848a626 626 0 0 0-383-322c-221-78-448-42-674-17-244 27-514 73-744-9-233-82-372-320-399-652 172 255 383 223 610 199 185-19 368-49 552-68 65-6 132-12 199-14z" horiz-adv-x="2200" />

<glyph glyph-name="arrowtop" unicode="&#xe80e;" d="M50-150l-50 59c406 327 663 684 663 941h80c0-257 257-614 663-941l-50-59c-336 267-564 555-653 802-89-247-317-535-653-802z" horiz-adv-x="1406" />

<glyph glyph-name="arrowright" unicode="&#xe80f;" d="M42-150l-42 35c190 240 387 402 563 465-176 63-373 225-563 465l42 35c226-289 486-472 669-472v-56c-190 0-443-183-669-472z" horiz-adv-x="711" />

<glyph glyph-name="brand-5" unicode="&#xe810;" d="M646 665h-7c-7-300-14-306-313-313v-7c299-7 306-13 313-313h7c6 300 13 306 313 313v7c-300 10-303 13-313 313z m-320-671c-105-1-178 30-207 87-32 63-8 151 72 245 76 95 193 185 334 257l0 0c288 147 579 162 644 33 66-129-114-353-405-501-138-70-283-114-403-122-12 1-24 3-35 1z m207 574l0 0c-138-70-255-160-330-251-74-91-98-171-69-228 29-57 108-85 225-78 118 7 259 49 397 119 282 144 459 359 398 479-61 120-339 103-621-41z" horiz-adv-x="1286" />

<glyph glyph-name="play" unicode="&#xe811;" d="M772 333l-741-412q-13-7-22-2t-9 20v822q0 14 9 20t22-2l741-412q13-7 13-17t-13-17z" horiz-adv-x="785.7" />

<glyph glyph-name="cancel" unicode="&#xe812;" d="M654 349l346-346-154-154-346 346-346-346-154 154 346 346-346 346 154 154 346-346 346 346 154-154z" horiz-adv-x="1000" />

<glyph glyph-name="linearrow-left" unicode="&#xe813;" d="M708 818a1791 1791 0 0 0-361-358 839 839 0 0 0-206-110 839 839 0 0 0 206-110 1791 1791 0 0 0 361-358l-42-32c-227 292-483 474-666 474l0 52c183 0 439 182 666 474z m946-442l0-52-1531 0 0 52z" horiz-adv-x="1654" />

<glyph glyph-name="linearrow-right" unicode="&#xe814;" d="M946-118a1791 1791 0 0 0 361 358 839 839 0 0 0 206 110 839 839 0 0 0-206 111 1791 1791 0 0 0-361 357l42 32c228-292 483-473 666-473l0-53c-183 0-438-182-666-474z m-946 442l0 52 1531 0 0-52z" horiz-adv-x="1654" />

<glyph glyph-name="tapme" unicode="&#xe815;" d="M25 597a34 34 0 0 1-4-19l-13 30 134 81 21-26a34 34 0 0 1-20 5 47 47 0 0 1-23-7l-28-17 94-157a48 48 0 0 1 13-16 21 21 0 0 1 11-4c3 0 5 1 5 1l-45-27c0 0 1 1 2 3a20 20 0 0 1 2 12 51 51 0 0 1-8 19l-95 156-28-17a47 47 0 0 1-18-17z m317 29l-3-57a57 57 0 0 1 2-20 16 16 0 0 1 14-12l-45-15c2 1 5 4 7 9a93 93 0 0 1 6 30l16 221 146-168a75 75 0 0 1 22-18 24 24 0 0 1 12-4l-52-17a13 13 0 0 1 4 14 57 57 0 0 1-11 17l-40 46z m69 37l-62 72-6-95z m309 85a62 62 0 0 0-23-26 86 86 0 0 0-39-13 159 159 0 0 0-29 0l7-71a46 46 0 0 1 5-19 21 21 0 0 1 8-9c3-1 4-1 4-1l-52-5c0-1 1 0 4 2a20 20 0 0 1 6 9 48 48 0 0 1 1 20l-16 165a51 51 0 0 1-5 20 20 20 0 0 1-8 8c-3 2-4 2-4 2l64 6a146 146 0 0 0 28 1 70 70 0 0 0 19-5 53 53 0 0 0 25-19 63 63 0 0 0 11-30 64 64 0 0 0-6-35z m-37 64a52 52 0 0 1-40 11l-25-3 9-98a163 163 0 0 1 30 0 48 48 0 0 1 35 17 49 49 0 0 1 9 37 52 52 0 0 1-18 36z m477-261a15 15 0 0 1 10 4 44 44 0 0 1 11 22l46 158-138-167-29 215-46-156a40 40 0 0 1-1-26 19 19 0 0 1 8-10l-47 14a19 19 0 0 1 13 4 39 39 0 0 1 12 22l46 159a32 32 0 0 1 1 23 23 23 0 0 1-9 10l43-13 26-199 128 154 38-11a16 16 0 0 1-11-4 39 39 0 0 1-11-20l-46-161a38 38 0 0 1-2-23 16 16 0 0 1 7-9z m141-63c0-1 1-1 4-1a21 21 0 0 1 11 5 58 58 0 0 1 14 17l83 139a52 52 0 0 1 7 20 22 22 0 0 1-1 12c-1 2-2 4-2 3l102-61-16-28q5 20-21 35l-39 23-48-80 49-29a27 27 0 0 1 10-4 24 24 0 0 1 9 0 17 17 0 0 1 3 1l-16-27a21 21 0 0 1-1 4 23 23 0 0 1-3 7 27 27 0 0 1-9 7l-49 30-48-81 45-26a51 51 0 0 1 25-8 36 36 0 0 1 21 6l-23-27z m-624-494a300 300 0 0 0 88-102 300 300 0 0 0 89 102l13-17c-56-44-91-93-91-127l-22 0c0 34-35 83-91 127z m78 386l21 0v-506l-21 0z" horiz-adv-x="1542" />

<glyph glyph-name="map-pin" unicode="&#xf276;" d="M286 243q37 0 71 8v-365q0-15-10-25t-26-11h-71q-14 0-25 11t-11 25v365q35-8 72-8z m0 607q118 0 202-84t83-202-83-202-202-83-202 83-84 202 84 202 202 84z m0-125q8 0 13 5t5 13-5 13-13 5q-82 0-139-58t-58-139q0-7 5-12t13-6 13 6 5 12q0 67 47 114t114 47z" horiz-adv-x="571.4" />
</font>
</defs>
</svg>
