<?xml version="1.0" encoding="UTF-8"?> <svg xmlns="http://www.w3.org/2000/svg" xmlns:xlink="http://www.w3.org/1999/xlink" width="50" height="50" viewBox="0 0 50 50"><defs><clipPath id="clip-fruit_2"><rect width="50" height="50"></rect></clipPath></defs><g id="fruit_2" clip-path="url(#clip-fruit_2)"><g id="perfect-skin" transform="translate(3 2.953)"><path id="Path_50" data-name="Path 50" d="M0,263.047v21.274H43.761V263.047Zm41.2,2.564v3.543H2.564v-3.543Zm0,6.107v3.932H2.564v-3.932ZM2.564,281.757v-3.543H41.2v3.543Z" transform="translate(0 -240.521)" fill="#db9"></path><path id="Path_51" data-name="Path 51" d="M93.449,32.649a8.565,8.565,0,0,1,1.594,5.15h2.564c-.05-3.168,1.782-7,5.043-7.094V28.141c-3.262-.091-5.091-3.924-5.043-7.094H95.043c.05,3.168-1.782,7-5.043,7.094v2.564A4.386,4.386,0,0,1,93.449,32.649ZM95.5,27.742a9.626,9.626,0,0,0,.829-1.308,8.819,8.819,0,0,0,2.514,2.989,8.819,8.819,0,0,0-2.514,2.989,8.819,8.819,0,0,0-2.514-2.989A8.191,8.191,0,0,0,95.5,27.742Z" transform="translate(-82.308 -19.205)" fill="#db9"></path><path id="Path_52" data-name="Path 52" d="M291.19,12.7h2.564A5.048,5.048,0,0,1,298.8,7.654V5.09A5.048,5.048,0,0,1,293.754.047H291.19a5.048,5.048,0,0,1-5.043,5.043V7.654A5.048,5.048,0,0,1,291.19,12.7Zm1.282-8.427a7.673,7.673,0,0,0,2.1,2.1,7.671,7.671,0,0,0-2.1,2.1,7.672,7.672,0,0,0-2.1-2.1A7.671,7.671,0,0,0,292.472,4.269Z" transform="translate(-261.69)" fill="#db9"></path></g></g></svg> 