<?xml version="1.0" encoding="UTF-8"?> <svg xmlns="http://www.w3.org/2000/svg" xmlns:xlink="http://www.w3.org/1999/xlink" width="50" height="50" viewBox="0 0 50 50"><defs><clipPath id="clip-fruit_1"><rect width="50" height="50"></rect></clipPath></defs><g id="fruit_1" clip-path="url(#clip-fruit_1)"><path id="Path_274" data-name="Path 274" d="M179.6,146.585a2.307,2.307,0,0,1,2.236-.053c.63.339,1.322.5,2.072.865a5.514,5.514,0,0,1,2.473,1.915c.056.089.109.181.157.275a1.741,1.741,0,0,1,.07.2,4.548,4.548,0,0,0-1.832,2.964c-.125.727-.145,1.472-.232,2.206-.147,1.242-.232,2.5-.5,3.716a4.187,4.187,0,0,1-1.007,1.767,6.642,6.642,0,0,0-1.839,4.289,34.461,34.461,0,0,1-2.734,10.475,18.368,18.368,0,0,1-4.041,5.971,8.315,8.315,0,0,0-2.521,6.55c.011.7.06,1.392.024,2.085a1.5,1.5,0,0,1-1.6,1.575,1.3,1.3,0,0,1-1.293-1.191,23.062,23.062,0,0,0-.28-2.47,3.833,3.833,0,0,0-2.214-2.863,6.049,6.049,0,0,1-2.768-2.59c-.776-1.364-1.61-2.706-2.252-4.133a11.922,11.922,0,0,1-.531-7.167,23.6,23.6,0,0,1,3.929-9.406c2.417-3.489,4.878-6.941,7.511-10.27a4.545,4.545,0,0,0,.5-.768,5.212,5.212,0,0,1,3.446-2.608,5.439,5.439,0,0,0,.8-.326C177.87,147.263,178.831,147.027,179.6,146.585Z" transform="translate(-148.652 -143.452)" fill="none" stroke="#db9" stroke-linecap="round" stroke-linejoin="round" stroke-width="2.5"></path></g></svg> 