<?xml version="1.0" encoding="UTF-8"?> <svg xmlns="http://www.w3.org/2000/svg" xmlns:xlink="http://www.w3.org/1999/xlink" width="50" height="50" viewBox="0 0 50 50"><defs><clipPath id="clip-fruit_3"><rect width="50" height="50"></rect></clipPath></defs><g id="fruit_3" clip-path="url(#clip-fruit_3)"><g id="Group_352" data-name="Group 352" transform="translate(-244 -952.37)"><path id="Path_275" data-name="Path 275" d="M245,971.691a1.567,1.567,0,0,1,1.277-.832c2.194-.5,4.395-.982,6.564-1.578a10.643,10.643,0,0,0,4.056-2.1,9.275,9.275,0,0,0,2.564-3.707,40.1,40.1,0,0,0,2.029-7.721c.035-.18.061-.364.106-.542a1.022,1.022,0,0,1,1.007-.846,1,1,0,0,1,1,.853c.17.778.3,1.565.467,2.344A36.011,36.011,0,0,0,265.7,963.4a9.229,9.229,0,0,0,5.452,5.453,43.586,43.586,0,0,0,7.728,2.009c.136.027.272.052.405.084a1.02,1.02,0,0,1-.031,2.03c-.78.161-1.565.3-2.345.465a35.168,35.168,0,0,0-5.787,1.631,9.213,9.213,0,0,0-5.418,5.428,43.264,43.264,0,0,0-2.009,7.727c-.029.151-.054.3-.091.451a1.016,1.016,0,0,1-2.013-.012c-.17-.794-.307-1.6-.475-2.39a35.966,35.966,0,0,0-1.628-5.787,9.212,9.212,0,0,0-5.425-5.421,41.525,41.525,0,0,0-7.682-2,1.645,1.645,0,0,1-1.383-.828Zm29.039.224c-.157-.045-.315-.083-.469-.135-1.244-.425-2.515-.789-3.727-1.293a10.3,10.3,0,0,1-5.086-4.409A20.563,20.563,0,0,1,262.778,961c-.043-.16-.093-.319-.139-.478-.836,2.819-1.706,5.57-3.832,7.685s-4.862,2.963-7.651,3.749a3.416,3.416,0,0,0,.52.195c1.23.421,2.484.785,3.683,1.282a10.292,10.292,0,0,1,5.11,4.447,20.52,20.52,0,0,1,1.942,5c.047.177.1.353.15.529.837-2.821,1.707-5.572,3.831-7.69S271.264,972.75,274.039,971.915Z" fill="#db9"></path><path id="Path_276" data-name="Path 276" d="M288.172,1008.145c-.548,0-.907-.35-1.051-1.025-.22-1.034-.415-2.074-.67-3.1a9.143,9.143,0,0,0-1.438-3.36,5.973,5.973,0,0,0-3.34-2.073c-1.326-.372-2.68-.643-4.023-.948A1.2,1.2,0,0,1,276.7,997a1,1,0,0,1,.761-1.4c1.1-.262,2.221-.46,3.32-.736a9.184,9.184,0,0,0,3.279-1.4,5.952,5.952,0,0,0,2.108-3.369c.371-1.326.644-2.679.947-4.024.19-.847.824-1.255,1.487-.932a1.23,1.23,0,0,1,.617.968c.213,1,.423,2.009.652,3.009.092.4.231.793.347,1.19a5.9,5.9,0,0,0,4.395,4.275c1.3.351,2.621.625,3.932.934.09.021.18.037.269.06a1.024,1.024,0,0,1-.033,2.038c-.928.2-1.877.328-2.785.6a20.224,20.224,0,0,0-3.179,1.169,5.431,5.431,0,0,0-2.656,3.7c-.37,1.31-.64,2.648-.939,3.978C289.065,1007.777,288.728,1008.143,288.172,1008.145Zm-5.945-11.551a8.084,8.084,0,0,1,5.94,5.964,8.1,8.1,0,0,1,5.953-5.971,8.067,8.067,0,0,1-5.955-5.959A8.087,8.087,0,0,1,282.227,996.594Z" transform="translate(-7.567 -7.34)" fill="#db9"></path></g></g></svg> 