<?xml version="1.0" encoding="UTF-8"?> <svg xmlns="http://www.w3.org/2000/svg" xmlns:xlink="http://www.w3.org/1999/xlink" width="50" height="50" viewBox="0 0 50 50"><defs><clipPath id="clip-smoothie_1"><rect width="50" height="50"></rect></clipPath></defs><g id="smoothie_1" clip-path="url(#clip-smoothie_1)"><path id="star" d="M9.088,39.4a2.161,2.161,0,0,1-2.1-2.639L9.6,25.256.739,17.488a2.16,2.16,0,0,1,1.223-3.776l11.72-1.064L18.316,1.8a2.158,2.158,0,0,1,3.969,0l4.634,10.846,11.719,1.064a2.16,2.16,0,0,1,1.227,3.776l-8.858,7.767L33.618,36.76a2.157,2.157,0,0,1-3.211,2.331L20.3,33.052,10.194,39.095A2.163,2.163,0,0,1,9.088,39.4ZM20.3,30.45a2.163,2.163,0,0,1,1.106.306l9.538,5.7L28.48,25.6a2.158,2.158,0,0,1,.684-2.1l8.364-7.335-11.066-1a2.155,2.155,0,0,1-1.793-1.308L20.3,3.617,15.927,13.852a2.149,2.149,0,0,1-1.788,1.3l-11.067,1,8.364,7.335a2.153,2.153,0,0,1,.684,2.1L9.656,36.459l9.538-5.7A2.162,2.162,0,0,1,20.3,30.45ZM13.593,12.857a0,0,0,0,1,0,0Zm13.412,0,0,0S27.007,12.854,27,12.852Zm0,0" transform="translate(4.252 4.916)" fill="#db9"></path></g></svg> 