<?xml version="1.0" encoding="UTF-8"?> <svg xmlns="http://www.w3.org/2000/svg" xmlns:xlink="http://www.w3.org/1999/xlink" width="50" height="50" viewBox="0 0 50 50"><defs><clipPath id="clip-smoothie_3"><rect width="50" height="50"></rect></clipPath></defs><g id="smoothie_3" clip-path="url(#clip-smoothie_3)"><g id="Group_354" data-name="Group 354" transform="translate(-307.232 -329.406)"><path id="Path_269" data-name="Path 269" d="M311,357.515c.11-.7.189-1.413.335-2.11a10.6,10.6,0,0,1,3.491-6.246c.461-.384.987-.69,1.5-1.045a6.817,6.817,0,0,1-.99-2.869,8.578,8.578,0,0,1-.039-1.153,1.289,1.289,0,0,1,.668-1.071,6.841,6.841,0,0,1,7.574.171l.388.269v-1.188c0-.248-.005-.5,0-.744a1.271,1.271,0,0,1,1.281-1.283,1.285,1.285,0,0,1,1.283,1.331c.008,1.886,0,3.772,0,5.659v1.449a8.2,8.2,0,0,1,6.661-.886,8.372,8.372,0,0,1,6.706-6.209v-.634c0-1.818-.007-3.634,0-5.452a1.285,1.285,0,0,1,1.921-1.193,1.2,1.2,0,0,1,.641,1.04c.012.3,0,.6,0,.973.271-.172.469-.308.676-.429a6.75,6.75,0,0,1,7.157-.027,1.42,1.42,0,0,1,.778,1.35,6.8,6.8,0,0,1-3.864,6.332c-.12.064-.244.121-.387.191.208.228.408.432.59.651a8.106,8.106,0,0,1,1.848,6.739,3.154,3.154,0,0,0,.836,2.771,12.079,12.079,0,0,1-6.49,19.968,11.916,11.916,0,0,1-9.5-2.067c-.066-.047-.135-.092-.194-.132-.574.391-1.119.813-1.708,1.157a7.966,7.966,0,0,1-6.759.9.687.687,0,0,0-.4,0c-3.023.967-5.666.123-8.047-1.761a15.43,15.43,0,0,1-5.2-8.135c-.337-1.182-.468-2.423-.695-3.638-.022-.12-.048-.239-.073-.358Zm20.684,3.838c0,6.917,5.89,11.465,11.915,9.867a9.512,9.512,0,0,0,7-10.013,9.335,9.335,0,0,0-2.432-5.563,5.693,5.693,0,0,1-1.49-4.868,6.928,6.928,0,0,0,.028-1.845,5.6,5.6,0,0,0-6.363-4.784,5.664,5.664,0,0,0-4.738,6.462,7.59,7.59,0,0,1,.085,1.641,5.791,5.791,0,0,1-1.637,3.517A8.918,8.918,0,0,0,331.684,361.353Zm.286,8.51c-.086-.111-.143-.186-.2-.26a12.028,12.028,0,0,1,.364-15.548,3.473,3.473,0,0,0,.913-3.223.541.541,0,0,0-.371-.463,4.9,4.9,0,0,0-2.87-.241,7.705,7.705,0,0,0-3.6,1.986,1.346,1.346,0,0,1-2.013,0,12.646,12.646,0,0,0-1.976-1.4,5.08,5.08,0,0,0-6.9,1.667,8.667,8.667,0,0,0-1.353,3.032,15.059,15.059,0,0,0,1.45,10.635,10.906,10.906,0,0,0,4.26,4.649,4.969,4.969,0,0,0,4.107.671,4.458,4.458,0,0,1,2.843,0C328.639,371.944,330.357,371.107,331.97,369.862Zm12.177-28.142a4.4,4.4,0,0,0,4.25-3.559c.034-.175.091-.334-.156-.432A4.291,4.291,0,0,0,342.484,341c-.041.245.04.36.267.409C343.216,341.513,343.682,341.617,344.146,341.72Zm-20.282,6.909a1.834,1.834,0,0,0,.015-.194,4.3,4.3,0,0,0-5.744-3.639c-.249.1-.241.259-.2.455a4.038,4.038,0,0,0,.927,1.946.77.77,0,0,0,.513.232,8.593,8.593,0,0,1,3.171.606C322.984,348.209,323.408,348.423,323.864,348.63Z" fill="#db9"></path></g></g></svg> 