<?xml version="1.0" encoding="UTF-8"?> <svg xmlns="http://www.w3.org/2000/svg" xmlns:xlink="http://www.w3.org/1999/xlink" width="50" height="50" viewBox="0 0 50 50"><defs><clipPath id="clip-tea_1"><rect width="50" height="50"></rect></clipPath></defs><g id="tea_1" clip-path="url(#clip-tea_1)"><path id="Path_279" data-name="Path 279" d="M202.028,555.1v-.926L199.3,552.8v-.017c-.008,0-6.756-5.424-6.756-5.424a35.8,35.8,0,0,0-11.125-6.07l-.423-.142-.423-.124a1.086,1.086,0,0,1,0-2.058l3.738-1.259A12.687,12.687,0,0,1,201.016,549.8v1.46l1.012.508V534.861l-1.745-1.753h-.06a14.309,14.309,0,0,1-13.94-11.226l-.872-3.957a1.081,1.081,0,0,1,1.053-1.319,1.058,1.058,0,0,1,.343.056l5.244,1.75a14.35,14.35,0,0,1,9.744,13.144l.235.236v-.884a6.483,6.483,0,0,1,2.379-5v-1.661a25.205,25.205,0,0,1,1.466-8.482l2.564-7.207a1.076,1.076,0,0,1,.953-.719h0a1.094,1.094,0,0,1,1.136,1.016l.387,6a16.108,16.108,0,0,1-4.651,12.354l-.173.135a4.262,4.262,0,0,0-1.9,3.561v10.88l1.165-.878,1.7-5.4.1-.31a10.566,10.566,0,0,1,13.5-6.528l6.595,2.318a1.083,1.083,0,0,1-.224,2.1l-1.557.2a31.85,31.85,0,0,0-18.422,9.049l-.123.1-2.74,2.064v10.6a1.079,1.079,0,0,1-1.08,1.08h0A1.08,1.08,0,0,1,202.028,555.1Zm-17.805-15.087a37.96,37.96,0,0,1,9.675,5.665l4.962,3.989A10.517,10.517,0,0,0,185,539.753Zm32.909-9.777a8.381,8.381,0,0,0-8.025,5.927l-.627,2a33.992,33.992,0,0,1,13.963-6.559l-2.507-.882c-.1-.033-.19-.066-.286-.095A8.371,8.371,0,0,0,217.131,530.235Zm-28.74-8.833a12.057,12.057,0,0,0,9.516,9.306l-5.308-5.331a1.079,1.079,0,0,1,0-1.525h0a1.079,1.079,0,0,1,1.527,0l5.147,5.173a12.106,12.106,0,0,0-7.909-8.557l-3.436-1.151Zm19.508-4.907a23.075,23.075,0,0,0-1.321,6.862,13.972,13.972,0,0,0,2.165-8.37l-.045-.735Z" transform="translate(-178.73 -506.74)" fill="#db9"></path></g></svg> 