<?xml version="1.0" encoding="UTF-8"?> <svg xmlns="http://www.w3.org/2000/svg" xmlns:xlink="http://www.w3.org/1999/xlink" width="50" height="50" viewBox="0 0 50 50"><defs><clipPath id="clip-tea_3"><rect width="50" height="50"></rect></clipPath></defs><g id="tea_3" clip-path="url(#clip-tea_3)"><path id="Path_273" data-name="Path 273" d="M652.467,505.531c-11.385,0-20.648-8.3-20.648-18.5,0-6.51,3.727-14.031,11.076-22.356l.909-1.034,4.109,4.1,6.446-10.75,1.17,1.16c6.568,6.52,17.587,18.944,17.587,28.879C673.116,497.234,663.854,505.531,652.467,505.531Zm-5.351-18.3a16.682,16.682,0,0,0-1.962,7.142c0,4.747,3.28,8.578,7.313,8.578s7.314-3.831,7.314-8.542c0-2.732-1.457-6.449-4.216-10.748l-.711-1.108-4.338,6.506-2.852-2.847Zm-3.791-19.094c-5.838,7.037-8.924,13.572-8.924,18.895a15.569,15.569,0,0,0,7.916,13.161l2.193,1.229-.979-2.316a12.02,12.02,0,0,1-.957-4.694c0-3.242,1.245-6.938,3.7-10.984l.851-1.406,2.991,2.991,4.658-6.991,1.089,1.5c2.965,4.093,6.5,10,6.5,14.883a12.055,12.055,0,0,1-.957,4.694l-.978,2.313,2.192-1.227a15.562,15.562,0,0,0,7.919-13.131c0-8.324-9.326-19.293-14.885-25.092l-.78-.814-6.449,10.754-4.493-4.5Z" transform="translate(-626.678 -455.531)" fill="#db9"></path></g></svg> 