<?xml version="1.0" encoding="UTF-8"?> <svg xmlns="http://www.w3.org/2000/svg" xmlns:xlink="http://www.w3.org/1999/xlink" width="50" height="50" viewBox="0 0 50 50"><defs><clipPath id="clip-tea_2"><rect width="50" height="50"></rect></clipPath></defs><g id="tea_2" clip-path="url(#clip-tea_2)"><g id="Group_351" data-name="Group 351" transform="translate(-527.101 -531.101)"><rect id="Rectangle_93" data-name="Rectangle 93" width="49.4" height="49.4" transform="translate(527.7 531.7)" fill="none"></rect><path id="Path_272" data-name="Path 272" d="M552.022,576.8a20.626,20.626,0,1,1,11.106-38.045l-1.975,1.974a17.66,17.66,0,0,0-9-2.464,18,18,0,0,0-3.982.444,17.841,17.841,0,0,0,3.938,35.239,17.856,17.856,0,0,0,17.5-21.374l2.248-2.251A20.626,20.626,0,0,1,552.076,576.8Zm-10.852-19.914,1.908-1.909,6.041,6.041,21.349-21.351,1.911,1.9-23.256,23.27Z" transform="translate(0.404 0.415)" fill="#db9"></path></g></g></svg> 